<svg id="Home" xmlns="http://www.w3.org/2000/svg" viewBox="0 0 161.91 62.3"><defs><style>.cls-1{fill:#a48c9b;}.cls-2{fill:#864f5f;}</style></defs><title>Vector Smart Object</title><path class="cls-1" d="M99.6,0.16V0a21.65,21.65,0,0,1,4,.48V3.14c-1.16-1.22-2.63-2.64-4-3M92.45,17.75v-3a11.14,11.14,0,0,0,4.49,3.38v0.16a22,22,0,0,1-4.49-.56m8.34-2.91c0-1.67-.88-2.15-2.83-3.19l-1.78-.88c-2.12-1-3.73-2.6-3.73-5.09C92.45,2.2,95.7.14,98.61,0V0.16a2.78,2.78,0,0,0-2.4,2.75c0,1.75.71,2.26,3.05,3.48l1.5,0.76c2,1.07,3.87,2.06,3.87,5.17,0,3.56-2.91,5.77-6.7,6V18.16a3.29,3.29,0,0,0,2.86-3.31"/><rect class="cls-1" x="107.29" y="0.26" width="5.09" height="17.81"/><polygon class="cls-1" points="131.52 0.26 127.7 0.26 125.98 5.95 126.11 6.04 131.52 0.26"/><polygon class="cls-1" points="115.67 0.26 126.21 18.06 132.03 18.06 121.4 0.26 115.67 0.26"/><polygon class="cls-1" points="121.26 11.47 121.44 11.46 119.16 18.02 115.36 18.06 121.26 11.47"/><polygon class="cls-2" points="86.13 36.51 86.12 40.32 79.18 40.32 79.18 40.26 86.13 36.51"/><polygon class="cls-2" points="61.34 22.43 61.34 22.49 56.2 26.04 56.2 22.43 61.34 22.43"/><polygon class="cls-2" points="66.41 22.5 66.3 22.43 71.55 22.43 71.55 26.04 66.41 22.5"/><path class="cls-2" d="M0,31.25c0,5.43,3.59,8.93,9.5,9.16V40.26c-2.86-.59-4.25-3.78-4.25-9s1.56-8.4,4.41-9V22.1C4.72,22.32,0,25.94,0,31.25"/><path class="cls-2" d="M15.38,25.69v-3a18.45,18.45,0,0,0-4.75-.62v0.16c2,0.65,3.25,2,4.74,3.43"/><path class="cls-2" d="M10.46,40.41a21.13,21.13,0,0,0,5-.62V36.68a15.39,15.39,0,0,1-5,3.58v0.15Z"/><path class="cls-2" d="M28,22.1v0.17c2.74,0.37,3.48,4.35,3.48,9s-0.74,8.64-3.48,9v0.15A9.17,9.17,0,0,0,28,22.1"/><path class="cls-2" d="M27,22.25V22.1a9.17,9.17,0,0,0,0,18.32V40.26c-2.69-.37-3.51-4.37-3.51-9s0.82-8.63,3.51-9"/><rect class="cls-2" x="39.35" y="22.43" width="5.09" height="17.89"/><path class="cls-2" d="M53.8,27.69c0-3.87-3.32-5.17-8.18-5.26v0.16c1.92,0.31,3.07,1.42,3.07,4.59,0,2.86-1.19,4-3,4.58C47,34.64,48.45,37.13,50,40.29h5.37V40c-1.78-3.05-3.56-5.91-4.89-8.4,1.78-.74,3.28-2,3.28-4"/><polygon class="cls-2" points="61.35 40.33 66.44 40.33 66.41 22.43 61.32 22.43 61.35 40.33"/><rect class="cls-2" x="74.13" y="22.43" width="5.09" height="17.9"/><rect class="cls-2" x="127.82" y="22.43" width="5.09" height="17.9"/><path class="cls-2" d="M134.15,22.43v0.16c3.17,0.23,5.11,2.51,5.11,8.84,0,6.14-2,8.53-5.09,8.75v0.15c5.94-.08,10.37-2.91,10.37-8.9,0-6.41-4.56-8.91-10.4-9"/><polygon class="cls-2" points="151.7 22.43 151.7 22.49 146.56 26.11 146.56 22.43 151.7 22.43"/><polygon class="cls-2" points="156.65 22.43 156.76 22.51 161.91 26.11 161.91 22.43 156.65 22.43"/><rect class="cls-2" x="151.67" y="22.43" width="5.09" height="17.89"/><rect class="cls-2" x="83.77" y="44.4" width="5.11" height="17.88"/><polygon class="cls-2" points="95.76 58.48 95.76 62.28 88.79 62.28 88.91 62.15 95.76 58.48"/><rect class="cls-2" x="98.44" y="44.42" width="5.11" height="17.88"/><polygon class="cls-2" points="110.25 58.5 110.25 62.3 103.39 62.3 103.44 62.18 110.25 58.5"/><path class="cls-2" d="M119.24,53.36V53.18l4.46-1.24v2.64ZM118,62.3h-5.12V44.38H118V62.3Z"/><polygon class="cls-2" points="124.75 58.5 124.75 62.3 117.89 62.3 118.02 62.18 124.75 58.5"/><polygon class="cls-2" points="117.97 44.49 117.81 44.38 124.75 44.38 124.75 48.22 117.97 44.49"/><polygon class="cls-2" points="140.6 44.42 139.41 50.94 139.57 50.94 144.55 44.42 140.6 44.42"/><polygon class="cls-2" points="127.47 44.42 133.15 44.42 138.06 53.3 138.06 62.3 132.95 62.3 132.95 54.18 127.47 44.42"/><polygon class="cls-2" points="73.12 55.2 70.96 49.58 73.01 44.38 74.42 44.38 81.31 62.26 75.85 62.26 73.46 56.1 68.68 56.1 69.08 55.2 73.12 55.2"/><polygon class="cls-2" points="67.83 57.99 67.91 57.99 69.04 62.26 65.89 62.26 67.83 57.99"/><polygon class="cls-2" points="96.08 33.26 93.91 27.63 95.97 22.42 97.38 22.42 104.27 40.32 98.81 40.32 96.42 34.16 91.63 34.16 92.04 33.26 96.08 33.26"/><polygon class="cls-2" points="90.78 36.04 90.86 36.04 91.99 40.32 88.83 40.32 90.78 36.04"/><polygon class="cls-2" points="120.53 22.41 124.38 22.41 123.71 31.37 123.64 31.37 120.53 22.41"/><path class="cls-2" d="M106.95,22.42h6.2l11.2,17.89h-6.22s-10-16.34-11.18-17.89"/><polygon class="cls-2" points="107.77 30.37 107.91 30.37 111.41 40.33 106.97 40.33 107.77 30.37"/><polygon class="cls-2" points="123.78 32.37 123.63 32.37 120.13 22.41 124.58 22.41 123.78 32.37"/></svg>