<svg id="Layer_1" data-name="Layer 1" xmlns="http://www.w3.org/2000/svg" xmlns:xlink="http://www.w3.org/1999/xlink" viewBox="0 0 117.72 134.16"><defs><style>.cls-1{fill:none;}.cls-2{fill:#7e505f;}.cls-3{clip-path:url(#clip-path);}.cls-4{fill:#a48c9b;}</style><clipPath id="clip-path" transform="translate(0 0)"><rect class="cls-1" width="117.72" height="134.16"/></clipPath></defs><title>pha-icon</title><path class="cls-2" d="M39.94,118.7l-7,15.46H44.32l-4.1-15.46H39.94ZM58.68,69.47L51.25,88.29l7.83,20.35H44.48L43,111.89H60.31L69,134.16H88.69L63.77,69.47H58.68Z" transform="translate(0 0)"/><g class="cls-3"><path class="cls-4" d="M0,64.65H18.47V0H0V64.65ZM48.9,18.74C49,5.5,39,.6,23.28.12V0.5c7.61,1.27,11.33,4.78,11.33,19.21,0,13.8-3.8,15.92-11.4,17.19v0.42a63.06,63.06,0,0,0,9-.25C44.13,35.92,48.81,29.3,48.9,18.74m9.71,45.91H77.08V0H58.61V64.65Zm59.11,0V0H99.25V29.15H80.16v3.28H99.25V64.65h18.47Z" transform="translate(0 0)"/></g></svg>