<svg id="Layer_1" data-name="Layer 1" xmlns="http://www.w3.org/2000/svg" xmlns:xlink="http://www.w3.org/1999/xlink" viewBox="0 0 117.72 134.17"><defs><style>.cls-1{fill:none;}.cls-2{clip-path:url(#clip-path);}.cls-3{fill:#7e505f;}.cls-4{fill:#a48c9b;}</style><clipPath id="clip-path" transform="translate(0 0)"><rect class="cls-1" width="117.72" height="134.17"/></clipPath></defs><title>phb-icon</title><g class="cls-2"><path class="cls-3" d="M58.94,134.17H77.37V69.57H58.94v64.6ZM90.7,100c11.94-.94,16.63-6.4,16.72-15.11,0.11-10.93-9.88-15-25.62-15.37v0.31c7.61,1,11.32,3.94,11.32,15.85,0,11.38-2.84,13.13-10.45,14.18v0.34a4.18,4.18,0,0,1,.43,0c7.61,1,10,6.28,10,17.53,0,10.68-4.14,14.8-11.75,15.85v0.32c13.18-.4,30.76-0.49,30.76-18.4,0-9.8-7-14.74-21.44-15.53" transform="translate(0 0)"/><path class="cls-4" d="M0,64.65H18.47V0H0V64.65ZM48.9,18.74C49,5.5,39,.6,23.28.12V0.49c7.61,1.27,11.33,4.78,11.33,19.21,0,13.8-3.8,15.92-11.4,17.19v0.42a63.06,63.06,0,0,0,9-.25C44.13,35.92,48.81,29.3,48.9,18.74m9.71,45.91H77.08V0H58.61V64.65Zm59.11,0V0H99.25V29.14H80.16v3.28H99.25V64.65h18.47Z" transform="translate(0 0)"/></g></svg>